<svg width="440" height="440" viewBox="0 0 440 440" fill="none" xmlns="http://www.w3.org/2000/svg">
<rect x="26" y="27" width="388" height="386" fill="black"/>
<path d="M38.5 0C28.2892 0 18.4965 4.05624 11.2764 11.2764C4.05624 18.4965 0 28.2892 0 38.5V401.5C0 411.711 4.05624 421.503 11.2764 428.724C18.4965 435.944 28.2892 440 38.5 440H401.5C411.711 440 421.503 435.944 428.724 428.724C435.944 421.503 440 411.711 440 401.5V38.5C440 28.2892 435.944 18.4965 428.724 11.2764C421.503 4.05624 411.711 0 401.5 0H38.5ZM220 170C233.261 170 245.979 175.268 255.355 184.645C264.732 194.021 270 206.739 270 220C270 233.261 264.732 245.979 255.355 255.355C245.979 264.732 233.261 270 220 270C206.739 270 194.021 264.732 184.645 255.355C175.268 245.979 170 233.261 170 220C170 206.739 175.268 194.021 184.645 184.645C194.021 175.268 206.739 170 220 170V170Z" fill="white"/>
</svg>
