<svg width="440" height="440" viewBox="0 0 440 440" fill="none" xmlns="http://www.w3.org/2000/svg">
<rect x="26" y="27" width="388" height="386" fill="black"/>
<path d="M38.5 0C28.2892 0 18.4965 4.05624 11.2764 11.2764C4.05624 18.4965 0 28.2892 0 38.5V401.5C0 411.711 4.05624 421.503 11.2764 428.724C18.4965 435.944 28.2892 440 38.5 440H401.5C411.711 440 421.503 435.944 428.724 428.724C435.944 421.503 440 411.711 440 401.5V38.5C440 28.2892 435.944 18.4965 428.724 11.2764C421.503 4.05624 411.711 0 401.5 0H38.5ZM87.47 36.03C100.469 36.4123 112.808 41.8444 121.868 51.1736C130.929 60.5029 135.998 72.9952 136 86C136 99.2608 130.732 111.979 121.355 121.355C111.979 130.732 99.2608 136 86 136C72.7392 136 60.0215 130.732 50.6447 121.355C41.2678 111.979 36 99.2608 36 86C36.0011 79.3109 37.3444 72.69 39.9504 66.5294C42.5563 60.3687 46.3719 54.7936 51.1713 50.1342C55.9706 45.4747 61.6561 41.8256 67.8911 39.4029C74.1261 36.9803 80.7838 35.8333 87.47 36.03V36.03ZM355.47 36.03C368.469 36.4123 380.808 41.8444 389.868 51.1736C398.929 60.5029 403.998 72.9952 404 86C404 99.2608 398.732 111.979 389.355 121.355C379.979 130.732 367.261 136 354 136C340.739 136 328.021 130.732 318.645 121.355C309.268 111.979 304 99.2608 304 86C304.001 79.3109 305.344 72.69 307.95 66.5294C310.556 60.3687 314.372 54.7936 319.171 50.1342C323.971 45.4747 329.656 41.8256 335.891 39.4029C342.126 36.9803 348.784 35.8333 355.47 36.03ZM87.47 304.03C100.469 304.412 112.808 309.844 121.868 319.174C130.929 328.503 135.998 340.995 136 354C136 367.261 130.732 379.979 121.355 389.355C111.979 398.732 99.2608 404 86 404C72.7392 404 60.0215 398.732 50.6447 389.355C41.2678 379.979 36 367.261 36 354C36.0011 347.311 37.3444 340.69 39.9504 334.529C42.5563 328.369 46.3719 322.794 51.1713 318.134C55.9706 313.475 61.6561 309.826 67.8911 307.403C74.1261 304.98 80.7838 303.833 87.47 304.03V304.03ZM355.47 304.03C368.469 304.412 380.808 309.844 389.868 319.174C398.929 328.503 403.998 340.995 404 354C404 367.261 398.732 379.979 389.355 389.355C379.979 398.732 367.261 404 354 404C340.739 404 328.021 398.732 318.645 389.355C309.268 379.979 304 367.261 304 354C304.001 347.311 305.344 340.69 307.95 334.529C310.556 328.369 314.372 322.794 319.171 318.134C323.971 313.475 329.656 309.826 335.891 307.403C342.126 304.98 348.784 303.833 355.47 304.03V304.03Z" fill="white"/>
</svg>
