<svg width="34" height="59" viewBox="0 0 34 59" fill="none" xmlns="http://www.w3.org/2000/svg">
	<symbol id ="pawn">
		<path d="M31.5131 48.404H30.3638C30.8694 47.6726 32.4579 44.9449 30.2228 42.215C27.6368 39.056 22.4918 29.5967 24.9236 23.2626H25.1131C25.9699 23.2626 26.6 22.5752 26.6 21.7273V21.5354C26.6 20.6875 25.9699 20 25.1131 20H24.8755C26.9927 17.9914 28.3131 15.1667 28.3131 12.0354C28.3131 5.94077 23.3203 1 17.1615 1C11.0028 1 6.01004 5.94077 6.01004 12.0354C6.01004 15.1667 7.33038 17.9914 9.44761 20H9.0161C8.15927 20 7.4 20.6875 7.4 21.5354V21.7273C7.4 22.5752 8.15927 23.2626 9.0161 23.2626H9.3999C11.8317 29.5967 6.68669 39.056 4.1007 42.215C1.86575 44.9449 3.45411 47.6726 3.95971 48.404H2.6161C1.75927 48.404 1 49.0915 1 49.9394V53.3939C1 54.2418 1.75927 54.9293 2.6161 54.9293H2.74545V58H31.4485V54.9293C32.4182 54.9293 33 54.2418 33 53.3939V49.9394C33 49.0915 32.3699 48.404 31.5131 48.404Z" fill="#FF0000" stroke="black" stroke-width="2"/>
	</symbol>
</svg>
